<?xml version="1.0" encoding="UTF-8" standalone="no"?>
<!-- Created with Inkscape (http://www.inkscape.org/) -->

<svg
   width="1024"
   height="1024"
   viewBox="0 0 270.93333 270.93333"
   version="1.1"
   id="svg1"
   inkscape:version="1.3 (0e150ed, 2023-07-21)"
   sodipodi:docname="fence_texture.svg"
   xmlns:inkscape="http://www.inkscape.org/namespaces/inkscape"
   xmlns:sodipodi="http://sodipodi.sourceforge.net/DTD/sodipodi-0.dtd"
   xmlns="http://www.w3.org/2000/svg"
   xmlns:svg="http://www.w3.org/2000/svg">
  <sodipodi:namedview
     id="namedview1"
     pagecolor="#505050"
     bordercolor="#ffffff"
     borderopacity="1"
     inkscape:showpageshadow="0"
     inkscape:pageopacity="0"
     inkscape:pagecheckerboard="1"
     inkscape:deskcolor="#d1d1d1"
     inkscape:document-units="px"
     inkscape:zoom="0.50962882"
     inkscape:cx="438.55447"
     inkscape:cy="608.28585"
     inkscape:window-width="1920"
     inkscape:window-height="1049"
     inkscape:window-x="1920"
     inkscape:window-y="0"
     inkscape:window-maximized="1"
     inkscape:current-layer="layer1" />
  <defs
     id="defs1" />
  <g
     inkscape:label="Слой 1"
     inkscape:groupmode="layer"
     id="layer1">
    <rect
       style="fill:#f2f2f2;stroke:none;stroke-width:2.64584"
       id="rect1"
       width="270.93332"
       height="270.93332"
       x="0"
       y="0" />
    <path
       d="M -135.46666,135.46665 135.46665,406.39998 M -118.53332,118.53333 152.39999,389.46665 M -101.59999,101.6 169.33332,372.53331 M -84.66666,84.666664 186.26666,355.59999 M -67.733327,67.733332 203.19999,338.66665 M -50.799994,50.799999 220.13333,321.73332 M -33.866661,33.866666 237.06665,304.79998 M -16.933331,16.933337 253.99999,287.86666 M -2.608136e-6,7.2913585e-6 270.93332,270.93333 M 16.933337,-16.933331 287.86666,253.99999 M 33.866666,-33.866661 304.79998,237.06665 M 50.799996,-50.79999 321.73331,220.13333 M 67.733334,-67.73333 338.66665,203.19999 M 84.666664,-84.666658 355.59999,186.26666 m -254,-287.86665 270.93332,270.93332 M 118.53333,-118.53333 389.46665,152.39999 M 135.46667,-135.46666 406.39998,135.46665 m -541.86664,0 270.93333,-270.93331 M -118.53332,152.39999 152.39999,-118.53332 M -101.59999,169.33332 169.33332,-101.59999 M -84.66666,186.26666 186.26666,-84.66666 M -67.733327,203.19999 203.19999,-67.733327 M -50.799994,220.13333 220.13333,-50.799994 M -33.866661,237.06665 237.06665,-33.866661 M -16.933331,253.99999 253.99999,-16.933331 M -2.608136e-6,270.93332 270.93332,-2.608136e-6 M 16.933337,287.86666 287.86666,16.933337 M 33.866666,304.79998 304.79998,33.866666 M 50.799996,321.73331 321.73331,50.799996 M 67.733334,338.66665 338.66665,67.733334 M 84.666664,355.59999 355.59999,84.666664 m -254,287.866646 270.93332,-270.93332 M 118.53333,389.46665 389.46665,118.53333 m -254,287.86665 270.93333,-270.93333"
       style="fill:none;stroke:#000000;stroke-width:2.64582px"
       id="path5" />
  </g>
</svg>
