<?xml version="1.0" encoding="UTF-8" standalone="no"?>
<!-- Created with Inkscape (http://www.inkscape.org/) -->

<svg
   width="512"
   height="384"
   viewBox="0 0 135.46666 101.6"
   version="1.1"
   id="svg1"
   inkscape:version="1.3 (0e150ed, 2023-07-21)"
   sodipodi:docname="tile_texture.svg"
   xmlns:inkscape="http://www.inkscape.org/namespaces/inkscape"
   xmlns:sodipodi="http://sodipodi.sourceforge.net/DTD/sodipodi-0.dtd"
   xmlns="http://www.w3.org/2000/svg"
   xmlns:svg="http://www.w3.org/2000/svg">
  <sodipodi:namedview
     id="namedview1"
     pagecolor="#505050"
     bordercolor="#ffffff"
     borderopacity="1"
     inkscape:showpageshadow="0"
     inkscape:pageopacity="0"
     inkscape:pagecheckerboard="1"
     inkscape:deskcolor="#d1d1d1"
     inkscape:document-units="px"
     inkscape:zoom="1.4142136"
     inkscape:cx="184.20132"
     inkscape:cy="253.14423"
     inkscape:window-width="1920"
     inkscape:window-height="1049"
     inkscape:window-x="1920"
     inkscape:window-y="0"
     inkscape:window-maximized="1"
     inkscape:current-layer="layer3" />
  <defs
     id="defs1">
    <rect
       x="-144.19161"
       y="44.473451"
       width="100.8007"
       height="132.2854"
       id="rect14" />
    <rect
       x="-144.1916"
       y="44.47345"
       width="100.8007"
       height="132.2854"
       id="rect14-9" />
  </defs>
  <g
     inkscape:groupmode="layer"
     id="layer2"
     inkscape:label="Tile Bg">
    <rect
       style="fill:#d40000;fill-opacity:1;stroke-width:1.32292"
       id="rect2"
       width="33.866665"
       height="33.866665"
       x="0"
       y="-2.220446e-16" />
    <rect
       style="fill:#ff0000;fill-opacity:1;stroke-width:1.32292"
       id="rect3"
       width="33.866665"
       height="33.866665"
       x="33.866665"
       y="-2.220446e-16" />
    <rect
       style="fill:#ff2a2a;fill-opacity:1;stroke-width:1.32292"
       id="rect4"
       width="33.866665"
       height="33.866665"
       x="67.73333"
       y="-2.220446e-16" />
    <rect
       style="fill:#ff5555;fill-opacity:1;stroke-width:1.32292"
       id="rect5"
       width="33.866665"
       height="33.866665"
       x="101.6"
       y="-2.220446e-16" />
    <rect
       style="fill:#d45500;fill-opacity:1;stroke-width:1.32292"
       id="rect6"
       width="33.866665"
       height="33.866665"
       x="0"
       y="33.866665" />
    <rect
       style="fill:#ff6600;fill-opacity:1;stroke-width:1.32292"
       id="rect7"
       width="33.866665"
       height="33.866665"
       x="33.866665"
       y="33.866665" />
    <rect
       style="fill:#ff7f2a;fill-opacity:1;stroke-width:1.32292"
       id="rect8"
       width="33.866665"
       height="33.866665"
       x="67.73333"
       y="33.866665" />
    <rect
       style="fill:#ff9955;fill-opacity:1;stroke-width:1.32292"
       id="rect9"
       width="33.866665"
       height="33.866665"
       x="101.6"
       y="33.866665" />
    <rect
       style="fill:#ffcc00;fill-opacity:1;stroke-width:1.32292"
       id="rect10"
       width="33.866665"
       height="33.866665"
       x="0"
       y="67.73333" />
    <rect
       style="fill:#ffd42a;fill-opacity:1;stroke-width:1.32292"
       id="rect11"
       width="33.866665"
       height="33.866665"
       x="33.866665"
       y="67.73333" />
    <rect
       style="fill:#ffdd55;fill-opacity:1;stroke-width:1.32292"
       id="rect12"
       width="33.866665"
       height="33.866665"
       x="67.73333"
       y="67.73333" />
    <rect
       style="fill:#ffe680;fill-opacity:1;stroke-width:1.32292"
       id="rect13"
       width="33.866665"
       height="33.866665"
       x="101.6"
       y="67.73333" />
  </g>
  <g
     inkscape:groupmode="layer"
     id="layer3"
     inkscape:label="Tile Text">
    <path
       d="m -127.61541,71.352656 h -10.048 v -4.032 q 6.528,-0.832 8.512,-2.304 1.984,-1.472 3.456,-6.72 h 3.712 v 45.376004 h -5.632 z"
       id="text13"
       style="font-size:64px;line-height:1.25;font-family:FreeSans;-inkscape-font-specification:FreeSans;white-space:pre;stroke:#ffffff"
       transform="matrix(0.26458333,0,0,0.26458333,51.099384,-4.4938576)"
       aria-label="1" />
    <path
       d="m 45.682854,15.096081 q 0.118533,-4.165592 3.962392,-4.165592 1.710264,0 2.777062,0.982132 1.066798,0.982131 1.066798,2.539995 0,2.235195 -2.539995,3.623726 l -1.69333,0.914398 q -1.100665,0.592666 -1.574797,1.151465 -0.474133,0.558799 -0.592666,1.320797 h 6.316121 v 1.473197 h -7.992518 q 0.1016,-1.981196 0.795866,-3.047994 0.694265,-1.083731 2.573861,-2.150529 l 1.557864,-0.880532 q 1.625597,-0.931331 1.625597,-2.370662 0,-0.965198 -0.677332,-1.608663 -0.677332,-0.643465 -1.69333,-0.643465 -2.252129,0 -2.421462,2.861727 z"
       id="text14"
       style="font-size:16.9333px;line-height:1.25;font-family:FreeSans;-inkscape-font-specification:FreeSans;stroke:#ffffff;stroke-width:0.264583"
       aria-label="2" />
    <path
       d="m 84.106545,12.039619 q -1.286931,0 -1.777997,0.711199 -0.474132,0.694265 -0.507999,1.862663 h -1.49013 q 0.08467,-3.877726 3.759192,-3.877726 1.710264,0 2.675462,0.880532 0.982131,0.880531 0.982131,2.421461 0,1.828797 -1.676397,2.489196 1.083732,0.372532 1.557864,1.049864 0.474132,0.660399 0.474132,1.811863 0,1.710264 -1.117597,2.726262 -1.100665,1.015998 -2.946395,1.015998 -3.691459,0 -3.962392,-3.877726 h 1.490131 q 0.08467,1.303864 0.694265,1.930396 0.609599,0.626532 1.828796,0.626532 1.168398,0 1.828797,-0.626532 0.660398,-0.643465 0.660398,-1.777996 0,-2.184396 -2.489195,-2.184396 l -0.626532,0.01693 h -0.186266 v -1.269997 q 1.608663,-0.03387 2.269062,-0.4064 0.677332,-0.372532 0.677332,-1.473197 0,-0.948264 -0.575732,-1.49013 -0.558799,-0.558799 -1.54093,-0.558799 z"
       id="text15"
       style="font-size:16.9333px;line-height:1.25;font-family:FreeSans;-inkscape-font-specification:FreeSans;stroke:#ffffff;stroke-width:0.264583"
       aria-label="3" />
    <path
       d="m 119.75317,20.057538 h -5.06306 v -1.574797 l 5.45253,-7.552252 h 1.10066 v 7.789318 h 1.778 v 1.337731 h -1.778 v 2.878661 h -1.49013 z m 0,-1.337731 v -5.249323 l -3.75919,5.249323 z"
       id="text16"
       style="font-size:16.9333px;line-height:1.25;font-family:FreeSans;-inkscape-font-specification:FreeSans;stroke:#ffffff;stroke-width:0.264583"
       aria-label="4" />
    <path
       d="m 20.294232,44.602422 v 1.473197 h -4.995324 l -0.474132,3.352793 q 0.999065,-0.728132 2.218262,-0.728132 1.727197,0 2.793995,1.117598 1.083731,1.100665 1.083731,2.878661 0,1.89653 -1.151464,3.098794 -1.151465,1.202264 -2.963328,1.202264 -0.694265,0 -1.286931,-0.152399 -0.575732,-0.1524 -0.965198,-0.3556 -0.372532,-0.220133 -0.694265,-0.558799 -0.304799,-0.355599 -0.474132,-0.609598 -0.1524,-0.270933 -0.3048,-0.660399 -0.135466,-0.406399 -0.169333,-0.558799 -0.03387,-0.1524 -0.08467,-0.440266 h 1.49013 q 0.524932,2.015063 2.455329,2.015063 1.219197,0 1.913462,-0.745065 0.711199,-0.745065 0.711199,-2.031996 0,-1.337731 -0.711199,-2.099729 -0.711198,-0.778932 -1.913462,-0.778932 -0.694266,0 -1.185331,0.253999 -0.491066,0.237066 -1.015998,0.863599 h -1.371598 l 0.897465,-6.536254 z"
       id="text17"
       style="font-size:16.9333px;line-height:1.25;font-family:FreeSans;-inkscape-font-specification:FreeSans;stroke:#ffffff;stroke-width:0.264583"
       aria-label="5" />
    <path
       d="m 46.773267,51.138664 q 0,-1.59173 0.287866,-2.793994 0.287867,-1.219198 0.711199,-1.913463 0.440266,-0.694266 1.032931,-1.117598 0.609599,-0.440266 1.134532,-0.575732 0.541865,-0.135467 1.134531,-0.135467 1.371597,0 2.269062,0.829732 0.914398,0.829732 1.134531,2.302929 h -1.49013 q -0.186267,-0.863599 -0.711199,-1.337731 -0.524932,-0.474132 -1.303864,-0.474132 -1.286931,0 -1.981196,1.185331 -0.677332,1.168397 -0.694266,3.369726 0.982132,-1.33773 2.760128,-1.33773 1.608664,0 2.641595,1.066798 1.032931,1.066797 1.032931,2.743194 0,1.761063 -1.117597,2.912528 -1.100665,1.134531 -2.810928,1.134531 -4.030126,0 -4.030126,-5.858922 z m 4.097859,-0.677332 q -1.100664,0 -1.79493,0.711199 -0.694265,0.694265 -0.694265,1.811863 0,1.151464 0.694265,1.930396 0.694266,0.761998 1.74413,0.761998 1.032931,0 1.710263,-0.728131 0.677332,-0.745066 0.677332,-1.879597 0,-1.202264 -0.626532,-1.896529 -0.626532,-0.711199 -1.710263,-0.711199 z"
       id="text18"
       style="font-size:16.9333px;line-height:1.25;font-family:FreeSans;-inkscape-font-specification:FreeSans;stroke:#ffffff;stroke-width:0.264583"
       aria-label="6" />
    <path
       d="m 88.610805,44.797143 v 1.253064 q -2.031996,2.709328 -3.217327,5.300123 -1.168398,2.573862 -1.659464,5.452523 h -1.59173 q 0.677332,-2.963328 1.727197,-5.215457 1.049864,-2.252129 3.200393,-5.317056 H 80.58442 v -1.473197 z"
       id="text19"
       style="font-size:16.9333px;line-height:1.25;font-family:FreeSans;-inkscape-font-specification:FreeSans;stroke:#ffffff;stroke-width:0.264583"
       aria-label="7" />
    <path
       d="m 120.4577,50.292011 q 2.06586,0.982131 2.06586,2.997194 0,1.64253 -1.13453,2.675461 -1.1176,1.032931 -2.8956,1.032931 -1.77799,0 -2.91252,-1.032931 -1.1176,-1.049865 -1.1176,-2.692395 0,-1.998129 2.04893,-2.98026 -0.9144,-0.575733 -1.27,-1.117598 -0.3556,-0.541866 -0.3556,-1.371598 0,-1.405464 0.99907,-2.302928 1.01599,-0.897465 2.60772,-0.897465 1.59173,0 2.5908,0.897465 1.016,0.897464 1.016,2.302928 0,0.846665 -0.3556,1.388531 -0.3556,0.541866 -1.28693,1.100665 z m -0.4572,-3.84386 q -0.5588,-0.524932 -1.50707,-0.524932 -0.94826,0 -1.52399,0.524932 -0.5588,0.507999 -0.5588,1.371598 0,0.846665 0.5588,1.371597 0.57573,0.507999 1.52399,0.507999 0.93134,0 1.50707,-0.507999 0.57573,-0.507999 0.57573,-1.354664 0,-0.880532 -0.57573,-1.388531 z m 0.3048,5.164657 q -0.69427,-0.660399 -1.81187,-0.660399 -1.11759,0 -1.81186,0.660399 -0.69426,0.643465 -0.69426,1.69333 0,1.049865 0.67733,1.710263 0.69426,0.660399 1.79493,0.660399 1.13453,0 1.82879,-0.643465 0.7112,-0.660399 0.7112,-1.727197 0,-1.049865 -0.69426,-1.69333 z"
       id="text20"
       style="font-size:16.9333px;line-height:1.25;font-family:FreeSans;-inkscape-font-specification:FreeSans;stroke:#ffffff;stroke-width:0.264583"
       aria-label="8" />
    <path
       d="m 19.055957,84.328005 q 0,1.59173 -0.287867,2.810927 -0.287866,1.202265 -0.728131,1.89653 -0.423333,0.694265 -1.032932,1.134531 -0.592665,0.423333 -1.134531,0.558799 -0.541865,0.135466 -1.134531,0.135466 -1.371597,0 -2.285995,-0.829731 -0.897465,-0.829732 -1.117598,-2.302929 h 1.49013 q 0.186266,0.863598 0.711199,1.337731 0.524932,0.474132 1.303864,0.474132 1.286931,0 1.964263,-1.168398 0.694265,-1.185331 0.711198,-3.38666 -1.117598,1.337731 -2.743194,1.337731 -1.625597,0 -2.658528,-1.066798 -1.032932,-1.066798 -1.032932,-2.743195 0,-1.761063 1.100665,-2.895594 1.117598,-1.151464 2.827861,-1.151464 4.047059,0 4.047059,5.858922 z m -4.063992,-4.555058 q -1.032932,0 -1.710264,0.745065 -0.677332,0.745065 -0.677332,1.879596 0,1.202265 0.626532,1.913463 0.626532,0.694266 1.710264,0.694266 1.083731,0 1.777996,-0.711199 0.711199,-0.711199 0.711199,-1.811863 0,-1.168398 -0.694266,-1.930396 -0.694265,-0.778932 -1.744129,-0.778932 z"
       id="text21"
       style="font-size:16.9333px;line-height:1.25;font-family:FreeSans;-inkscape-font-specification:FreeSans;stroke:#ffffff;stroke-width:0.264583"
       aria-label="9" />
    <path
       d="M 45.276457,81.923468 H 42.617928 V 80.85667 q 1.727197,-0.220132 2.252129,-0.609598 0.524933,-0.389466 0.914399,-1.777997 h 0.982131 v 12.00571 h -1.49013 z m 5.757317,2.743195 q 0,-1.507064 0.254,-2.658528 0.253999,-1.151465 0.643465,-1.79493 0.389466,-0.660399 0.931331,-1.066798 0.541866,-0.406399 1.032932,-0.541865 0.507999,-0.135467 1.066798,-0.135467 3.928525,0 3.928525,6.299188 0,2.963327 -1.015998,4.538124 -0.999064,1.557864 -2.912527,1.557864 -1.930397,0 -2.929461,-1.574797 -0.999065,-1.59173 -0.999065,-4.622791 z m 6.333054,-0.03387 q 0,-4.842923 -2.404528,-4.842923 -2.404529,0 -2.404529,4.893723 0,4.944524 2.370662,4.944524 1.253064,0 1.84573,-1.219198 0.592665,-1.219197 0.592665,-3.776126 z"
       id="text22"
       style="font-size:16.9333px;line-height:1.25;font-family:FreeSans;-inkscape-font-specification:FreeSans;stroke:#ffffff;stroke-width:0.264583"
       aria-label="10" />
    <path
       d="m 80.226629,82.118201 h -2.658528 v -1.066798 q 1.727196,-0.220133 2.252129,-0.609599 0.524932,-0.389466 0.914398,-1.777996 h 0.982131 v 12.00571 h -1.49013 z m 9.41491,0 h -2.658528 v -1.066798 q 1.727197,-0.220133 2.252129,-0.609599 0.524932,-0.389466 0.914398,-1.777996 h 0.982132 v 12.00571 h -1.490131 z"
       id="text23"
       style="font-size:16.9333px;line-height:1.25;font-family:FreeSans;-inkscape-font-specification:FreeSans;stroke:#ffffff;stroke-width:0.264583"
       aria-label="11" />
    <path
       d="m 114.90982,82.118201 h -2.65853 v -1.066798 q 1.7272,-0.220133 2.25213,-0.609599 0.52493,-0.389466 0.9144,-1.777996 h 0.98213 v 12.00571 h -1.49013 z m 5.87585,0.711199 q 0.11853,-4.165592 3.96239,-4.165592 1.71026,0 2.77706,0.982131 1.0668,0.982132 1.0668,2.539995 0,2.235196 -2.53999,3.623726 l -1.69333,0.914399 q -1.10067,0.592665 -1.5748,1.151464 -0.47413,0.558799 -0.59267,1.320797 h 6.31612 v 1.473198 h -7.99251 q 0.1016,-1.981197 0.79586,-3.047994 0.69427,-1.083732 2.57386,-2.15053 l 1.55787,-0.880531 q 1.62559,-0.931332 1.62559,-2.370662 0,-0.965198 -0.67733,-1.608664 -0.67733,-0.643465 -1.69333,-0.643465 -2.25213,0 -2.42146,2.861728 z"
       id="text24"
       style="font-size:16.9333px;line-height:1.25;font-family:FreeSans;-inkscape-font-specification:FreeSans;stroke:#ffffff;stroke-width:0.264583"
       aria-label="12" />
  </g>
</svg>
