<?xml version="1.0" encoding="UTF-8" standalone="no"?>
<!-- Created with Inkscape (http://www.inkscape.org/) -->

<svg
   width="1024"
   height="1024"
   viewBox="0 0 270.93333 270.93333"
   version="1.1"
   id="svg1"
   inkscape:version="1.3 (0e150ed, 2023-07-21)"
   sodipodi:docname="wavy_texture.svg"
   xmlns:inkscape="http://www.inkscape.org/namespaces/inkscape"
   xmlns:sodipodi="http://sodipodi.sourceforge.net/DTD/sodipodi-0.dtd"
   xmlns="http://www.w3.org/2000/svg"
   xmlns:svg="http://www.w3.org/2000/svg">
  <sodipodi:namedview
     id="namedview1"
     pagecolor="#505050"
     bordercolor="#ffffff"
     borderopacity="1"
     inkscape:showpageshadow="0"
     inkscape:pageopacity="0"
     inkscape:pagecheckerboard="1"
     inkscape:deskcolor="#d1d1d1"
     inkscape:document-units="px"
     inkscape:zoom="0.72515432"
     inkscape:cx="426.8057"
     inkscape:cy="641.24282"
     inkscape:window-width="1920"
     inkscape:window-height="1049"
     inkscape:window-x="1920"
     inkscape:window-y="0"
     inkscape:window-maximized="1"
     inkscape:current-layer="layer1" />
  <defs
     id="defs1" />
  <g
     inkscape:label="Слой 1"
     inkscape:groupmode="layer"
     id="layer1">
    <rect
       style="fill:#ffffff;stroke:#ffffff;stroke-width:1.32292"
       id="rect1"
       width="269.61041"
       height="269.61041"
       x="0.66145998"
       y="0.66145998" />
    <path
       id="path1-5"
       style="fill:none;stroke:#000000;stroke-width:2.64583;stroke-linecap:butt;stroke-linejoin:miter;stroke-dasharray:none;stroke-opacity:1"
       d="M 271.36818,38.188037 244.12483,14.283527 216.19742,36.147531 193.40573,13.794415 161.83816,33.725159 136.01482,14.919864 M 0.66145999,38.188037 27.90481,14.283527 55.832221,36.147531 78.623907,13.794415 110.19148,33.725159 136.01482,14.919864" />
    <path
       id="path1-5-2"
       style="fill:none;stroke:#000000;stroke-width:2.64583;stroke-linecap:butt;stroke-linejoin:miter;stroke-dasharray:none;stroke-opacity:1"
       d="M 270.93333,91.000119 243.68998,67.095608 215.76257,88.959609 192.97088,66.606496 161.40331,86.53724 135.57997,67.731945 M 0.226614,91.000119 27.469964,67.095608 55.397375,88.959609 78.18906,66.606496 109.75663,86.53724 135.57997,67.731945" />
    <path
       id="path1-5-7"
       style="fill:none;stroke:#000000;stroke-width:2.64583;stroke-linecap:butt;stroke-linejoin:miter;stroke-dasharray:none;stroke-opacity:1"
       d="m 271.57924,144.24385 -27.24335,-23.90451 -27.92741,21.86401 -22.79169,-22.35312 -31.56757,19.93075 -25.82334,-18.8053 M 0.87252102,144.24385 28.115871,120.33934 l 27.92741,21.86401 22.79169,-22.35312 31.567569,19.93075 25.82334,-18.8053" />
    <path
       id="path1-5-2-0"
       style="fill:none;stroke:#000000;stroke-width:2.64583;stroke-linecap:butt;stroke-linejoin:miter;stroke-dasharray:none;stroke-opacity:1"
       d="m 271.14439,197.05594 -27.24335,-23.90451 -27.92741,21.864 -22.79169,-22.35312 -31.56757,19.93075 -25.82334,-18.8053 M 0.43767102,197.05594 27.681021,173.15143 l 27.92741,21.864 22.79169,-22.35312 31.567569,19.93075 25.82334,-18.8053" />
    <path
       id="path1-5-7-0"
       style="fill:none;stroke:#000000;stroke-width:2.64583;stroke-linecap:butt;stroke-linejoin:miter;stroke-dasharray:none;stroke-opacity:1"
       d="m 270.70672,251.54482 -27.24335,-23.90451 -27.92741,21.86401 -22.79169,-22.35312 -31.56757,19.93075 -25.82334,-18.8053 M 0,251.54482 l 27.24335,-23.90451 27.92741,21.86401 22.79169,-22.35312 31.56757,19.93075 25.82334,-18.8053" />
  </g>
</svg>
