<?xml version="1.0" encoding="UTF-8" standalone="no"?>
<svg
   id="Слой_1"
   data-name="Слой 1"
   viewBox="0 0 1286.52 400"
   version="1.1"
   sodipodi:docname="roommate_logo_full.svg"
   inkscape:export-filename="roommate_logo_full.png"
   inkscape:export-xdpi="96"
   inkscape:export-ydpi="96"
   inkscape:version="1.3 (0e150ed, 2023-07-21)"
   xmlns:inkscape="http://www.inkscape.org/namespaces/inkscape"
   xmlns:sodipodi="http://sodipodi.sourceforge.net/DTD/sodipodi-0.dtd"
   xmlns="http://www.w3.org/2000/svg"
   xmlns:svg="http://www.w3.org/2000/svg">
  <defs
     id="defs21" />
  <sodipodi:namedview
     id="namedview21"
     pagecolor="#505050"
     bordercolor="#ffffff"
     borderopacity="1"
     inkscape:showpageshadow="0"
     inkscape:pageopacity="0"
     inkscape:pagecheckerboard="1"
     inkscape:deskcolor="#d1d1d1"
     inkscape:zoom="0.8907751"
     inkscape:cx="643.26001"
     inkscape:cy="199.82597"
     inkscape:window-width="1920"
     inkscape:window-height="1049"
     inkscape:window-x="1920"
     inkscape:window-y="0"
     inkscape:window-maximized="1"
     inkscape:current-layer="Слой_1" />
  <title
     id="title1">Точно нормальное лого</title>
  <circle
     cx="265.62"
     cy="288.34"
     r="7.6"
     fill="#403f41"
     id="circle1" />
  <circle
     cx="319.65"
     cy="288.34"
     r="7.6"
     fill="#403f41"
     id="circle2" />
  <path
     d="M245.19,310.69v4.18q51.56,44.85,103.11,0v-4.18Z"
     fill="#fff"
     id="path2" />
  <path
     d="M245.19,308.13v11.68c0,35,103,35,103.11,0V308.13l-17,8.26-.63,8.74a2.11,2.11,0,0,1-1.77,1.65l-20.52,1.39a2,2,0,0,1-2-1.39l-1.27-8.23H288.38l-1.26,8.23a2,2,0,0,1-2,1.39l-20.52-1.39a2.11,2.11,0,0,1-1.77-1.65l-.64-8.74Z"
     fill="#019972"
     id="path3" />
  <path
     d="M348.3,252.62c-3.64,1.69-10.52,6.65-13.81,8.93a58.79,58.79,0,0,0-11.15-8.11,110.2,110.2,0,0,0,1-12.92c-5-2.36-9.54-12.05-14.94-13.24-2.2,3.64-4.77,15.31-6.46,19.19a43.73,43.73,0,0,0-12.41,0c-1.69-3.88-4.27-15.55-6.46-19.19-5.41,1.19-10,10.88-14.95,13.24a110.2,110.2,0,0,0,1,12.92A58.41,58.41,0,0,0,259,261.55c-3.3-2.28-10.18-7.24-13.81-8.93-4.05,4.13-4.14,11.67-7.09,16.65a121.35,121.35,0,0,0,7.09,10.26V304l19.25,8.51a2,2,0,0,1,1.9,1.77l.51,8.49L283.57,324l1-7.72a2.45,2.45,0,0,1,1.9-1.9H307a2.43,2.43,0,0,1,1.9,1.9l1,7.72,16.72-1.26.5-8.49a2,2,0,0,1,1.9-1.77L348.3,304V279.53a123.73,123.73,0,0,0,7.09-10.26C352.43,264.29,352.35,256.75,348.3,252.62Zm-78.54,50.85a11.4,11.4,0,1,1,11.4-11.4A11.4,11.4,0,0,1,269.76,303.47Zm54,0a11.4,11.4,0,1,1,11.4-11.4A11.4,11.4,0,0,1,323.72,303.47Z"
     fill="#019972"
     id="path4" />
  <path
     d="M293.07,301.45c0,4.3,7.35,4.3,7.35,0v-10.9c0-4.3-7.35-4.3-7.35,0Z"
     fill="#fff"
     id="path5" />
  <path
     d="M30.74,98.67v228H227.08V219h31.66V98.67Zm177.34,209H49.74v-190h190V200l-31.66,19Z"
     fill="#2181a9"
     id="path6" />
  <path
     d="M208.08,200V377.33H385.41V200ZM366.41,358.33H227.08V219H366.41Z"
     fill="#019972"
     id="path7" />
  <path
     d="M31.65,117.67H257.83c13.13,0,18.59-14.59,8-21.3L152.71,24.92a15.24,15.24,0,0,0-15.94,0L23.68,96.37C13.07,103.08,18.53,117.67,31.65,117.67Z"
     fill="#2181a9"
     id="path8" />
  <path
     d="M206.27,219H387.21c10.5,0,14.87-11.76,6.38-17.17l-90.47-57.59a12.1,12.1,0,0,0-12.75,0l-90.48,57.59C191.4,207.24,195.77,219,206.27,219Z"
     fill="#019972"
     id="path9" />
  <path
     d="M113,219c-.31,1.64.24,7.67,1,9.13,7.48,13.48,19.1,31.43,20.13,57.37.43,2.59-1.73,4.32-4.32,4.74-2.8,0-20.9-50-31.66-48.47-11,1.73-20.47,28.65-20,43.73,0,2.59-2.16,4.32-4.74,4.74-2.79,0-4.31-2.15-5-4.74,0-4.31-13.83-111.16,5-145.79,4.52-4.73,14.3-3.63,28.61-2.6,0,0,25.79.34,26.87,15.86,0,0-4.66,27.86-6.38,33.25Zm-2.29-45.9c.43-11.85-14.25-19.53-20.26-11.24-6.06,22.65-13.78,58.42,4.1,54.32C96.7,215.54,105.75,188.4,110.71,173.1Z"
     fill="#2181a9"
     id="path10" />
  <path
     d="M216.91,135.07l7.91,40.21c.32,2.39-5.06,5.64-7.73,6-3,.41-12.86-5.27-13.14-7.3l-6.62-20.26-11.25,38.68c-.54,2-.86,4.09-3.18,4.4-2.49.34-4.71-2.8-5.3-4.41l-15.37-30.87C133.7,199,209.87,278.34,159.75,289.39c0,0-10.54.35-10.17-2.06C160.06,219,107.93,231,149,147.15c1.53-3.29,7.26-4.73,11-4.53,2.87.15,8.34,3.09,9.39,5.37.7,1.51,12.55,28.82,12.55,28.82l5.15-28.63c2.5-15.15,21.8-16.35,24.46-16.71C214.26,131.48,216.59,132.67,216.91,135.07Z"
     fill="#019972"
     id="path11" />
  <path
     d="M252.6,304c17.16-7.52,17.16-7.52,34.32,0Z"
     fill="#019972"
     id="path12" />
  <path
     d="M306.56,304c17.16-7.52,17.16-7.52,34.32,0Z"
     fill="#019972"
     id="path13" />
  <path
     d="M631.59,239.15c0,22.26-.56,45.09-5.63,67.35-3.39,16.62-15.78,22.82-32.41,25.64a149.19,149.19,0,0,1-25.08.85c-8.17-.85-7.61-5.08-9-11.28-9-38.88-24.54-87.37-17.49-126.26,3.94-22.26,23.69-38,44-50.42,4.79-2.81,27.62-16.06,31-4.79C628.77,170.68,631,207.31,631.59,239.15ZM608.77,238c-2.26-10.42-11.27-17.47-21.42-15.49a18.33,18.33,0,0,0-15.5,21.69c1.41,9.58,11.84,16.63,21.7,15.22C604,257.18,610.74,247.6,608.77,238Z"
     fill="#2181a9"
     id="path14" />
  <path
     d="M725.43,239.15c0,22.26-.56,45.09-5.64,67.35-3.38,16.62-15.78,22.82-32.4,25.64a149.26,149.26,0,0,1-25.08.85c-8.17-.85-7.61-5.08-9-11.28-9-38.88-13.81-80.3-6.76-119.19,3.94-22.26,13-45.09,33.25-57.49,4.79-2.81,27.61-16.06,31-4.79C722.61,170.68,724.87,207.31,725.43,239.15ZM702.6,238c-2.25-10.42-11.27-17.47-21.41-15.49a18.33,18.33,0,0,0-15.5,21.69c1.41,9.58,11.84,16.63,21.7,15.22C697.81,257.18,704.58,247.6,702.6,238Z"
     fill="#2181a9"
     id="path15" />
  <path
     d="M856.74,141.93V329c0,3.66-9,3.66-13.24,3.66-4.79,0-27.9-8.17-27.9-11.27L840.12,187l-21.7,57.2c-.85,2.54-4.23,5.08-7.89,5.08-3.94,0-7.33-2.54-7.89-5.08l-23.11-51.56c0,151.88-28.74,140-33.53,140,0,0-8.45-.56-9-4.22,0-6.2-5.63-146.25,43.68-183.45,9.3-6.2,18.88-9.58,29.87-9.58,4.51,0,8.45,2.82,8.45,6.48,0,2.54-2,47.63-2,47.63l7-31.85c7-22.26,20.85-22.26,25.08-22.26C853.36,136,856.74,138.27,856.74,141.93Z"
     fill="#2181a9"
     id="path16" />
  <path
     d="M988.06,141.93V329c0,3.66-9,3.66-13.25,3.66-4.79,0-27.89-8.17-27.89-11.27L971.43,187l-21.7,57.2c-.84,2.54-4.22,5.08-7.89,5.08-3.94,0-7.32-2.54-7.88-5.08l-23.11-51.56c0,151.88-28.74,140-33.53,140,0,0-8.46-.56-9-4.22,0-6.2-5.64-146.25,43.67-183.45,9.3-6.2,18.88-9.58,29.87-9.58,4.51,0,8.46,2.82,8.46,6.48,0,2.54-2,47.63-2,47.63l7-31.85c7-22.26,20.85-22.26,25.08-22.26C984.68,136,988.06,138.27,988.06,141.93Z"
     fill="#019972"
     id="path17" />
  <path
     d="M1084.43,141.93v185.7a6.07,6.07,0,0,1-5.64,5.64c-3.38,0-13.24-5.64-13.24-9,0,0-11.55-64.53-22.82-64.53-11.27.56-18.88,53.26-21.14,68.76,0,2.81-13,4.79-16.34,4.79-2.82,0-5.07-2.82-5.64-5.64,0-4.79-5.63-127.37,38.89-173.3,11.27-11.83,24.23-18,40.29-18A6.06,6.06,0,0,1,1084.43,141.93Zm-13.24,71.86a18.74,18.74,0,1,0-18.6,18.6A18.65,18.65,0,0,0,1071.19,213.79Z"
     fill="#019972"
     id="path18" />
  <path
     d="M1191.23,150.11c0,3.38-17.47,46.49-32.41,21.41-3.66-5.92-16.9,154.7-16.9,154.7,0,2.82-4.23,7.61-8.17,7.61s-7.9-4.79-7.9-7.61l-10.14-164.56c-14.09,11.84-20.29-1.41-19.73-16.34,0-3.67,1.41-7.33,5.08-7.89C1102.19,137.43,1191.23,131.23,1191.23,150.11Z"
     fill="#019972"
     id="path19" />
  <path
     d="M1259.26,231.54v42.55c-10.43,0-52.7,8.17-52.7,18.88,0,10.43,42.27,18.6,52.7,18.6v14.65c0,2.82-2.54,7-6.2,7h-73c-2.82,0-5.64-3.38-5.64-7-.84-4.79-5.63-126.8,38.32-172.73,11-11.84,25.08-18,40.3-18a6.08,6.08,0,0,1,6.2,6.2v53c-10.43,0-52.7,8.45-52.7,18C1206.56,223.09,1248.83,231.54,1259.26,231.54Z"
     fill="#019972"
     id="path20" />
  <path
     d="M505.6,211.94c-.53,2.81.41,13.12,1.8,15.63,12.8,23.09,32.7,53.83,34.46,98.25.74,4.42-3,7.38-7.38,8.11-4.8,0-35.79-85.58-54.22-83-18.83,3-35.05,49.06-34.31,74.89,0,4.42-3.7,7.38-8.13,8.11-4.78,0-7.38-3.69-8.48-8.11,0-7.38-23.68-190.36,8.62-249.66,7.74-8.1,24.49-6.22,49-4.45,0,0,44.16.58,46,27.15,0,0-8,47.72-10.92,56.94Zm-3.93-78.6c.74-20.29-24.39-33.44-34.69-19.25-10.37,38.78-23.59,100,7,93C477.69,206,493.19,159.53,501.67,133.34Z"
     fill="#2181a9"
     id="path21" />
</svg>
