<svg id="Слой_1" data-name="Слой 1" xmlns="http://www.w3.org/2000/svg" viewBox="0 0 400 400"><title>Точно нормальное лого</title><circle cx="265.62" cy="288.34" r="7.6" fill="#403f41"/><circle cx="319.65" cy="288.34" r="7.6" fill="#403f41"/><path d="M245.19,310.69v4.18q51.56,44.85,103.11,0v-4.18Z" fill="#fff"/><path d="M245.19,308.13v11.68c0,35,103,35,103.11,0V308.13l-17,8.26-.63,8.74a2.11,2.11,0,0,1-1.77,1.65l-20.52,1.39a2,2,0,0,1-2-1.39l-1.27-8.23H288.38l-1.26,8.23a2,2,0,0,1-2,1.39l-20.52-1.39a2.11,2.11,0,0,1-1.77-1.65l-.64-8.74Z" fill="#019972"/><path d="M348.3,252.62c-3.64,1.69-10.52,6.65-13.81,8.93a58.79,58.79,0,0,0-11.15-8.11,110.2,110.2,0,0,0,1-12.92c-5-2.36-9.54-12.05-14.94-13.24-2.2,3.64-4.77,15.31-6.46,19.19a43.73,43.73,0,0,0-12.41,0c-1.69-3.88-4.27-15.55-6.46-19.19-5.41,1.19-10,10.88-14.95,13.24a110.2,110.2,0,0,0,1,12.92A58.41,58.41,0,0,0,259,261.55c-3.3-2.28-10.18-7.24-13.81-8.93-4.05,4.13-4.14,11.67-7.09,16.65a121.35,121.35,0,0,0,7.09,10.26V304l19.25,8.51a2,2,0,0,1,1.9,1.77l.51,8.49L283.57,324l1-7.72a2.45,2.45,0,0,1,1.9-1.9H307a2.43,2.43,0,0,1,1.9,1.9l1,7.72,16.72-1.26.5-8.49a2,2,0,0,1,1.9-1.77L348.3,304V279.53a123.73,123.73,0,0,0,7.09-10.26C352.43,264.29,352.35,256.75,348.3,252.62Zm-78.54,50.85a11.4,11.4,0,1,1,11.4-11.4A11.4,11.4,0,0,1,269.76,303.47Zm54,0a11.4,11.4,0,1,1,11.4-11.4A11.4,11.4,0,0,1,323.72,303.47Z" fill="#019972"/><path d="M293.07,301.45c0,4.3,7.35,4.3,7.35,0v-10.9c0-4.3-7.35-4.3-7.35,0Z" fill="#fff"/><path d="M30.74,98.67v228H227.08V219h31.66V98.67Zm177.34,209H49.74v-190h190V200l-31.66,19Z" fill="#2181a9"/><path d="M208.08,200V377.33H385.41V200ZM366.41,358.33H227.08V219H366.41Z" fill="#019972"/><path d="M31.65,117.67H257.83c13.13,0,18.59-14.59,8-21.3L152.71,24.92a15.24,15.24,0,0,0-15.94,0L23.68,96.37C13.07,103.08,18.53,117.67,31.65,117.67Z" fill="#2181a9"/><path d="M206.27,219H387.21c10.5,0,14.87-11.76,6.38-17.17l-90.47-57.59a12.1,12.1,0,0,0-12.75,0l-90.48,57.59C191.4,207.24,195.77,219,206.27,219Z" fill="#019972"/><path d="M113,219c-.31,1.64.24,7.67,1,9.13,7.48,13.48,19.1,31.43,20.13,57.37.43,2.59-1.73,4.32-4.32,4.74-2.8,0-20.9-50-31.66-48.47-11,1.73-20.47,28.65-20,43.73,0,2.59-2.16,4.32-4.74,4.74-2.79,0-4.31-2.15-5-4.74,0-4.31-13.83-111.16,5-145.79,4.52-4.73,14.3-3.63,28.61-2.6,0,0,25.79.34,26.87,15.86,0,0-4.66,27.86-6.38,33.25Zm-2.29-45.9c.43-11.85-14.25-19.53-20.26-11.24-6.06,22.65-13.78,58.42,4.1,54.32C96.7,215.54,105.75,188.4,110.71,173.1Z" fill="#2181a9"/><path d="M216.91,135.07l7.91,40.21c.32,2.39-5.06,5.64-7.73,6-3,.41-12.86-5.27-13.14-7.3l-6.62-20.26-11.25,38.68c-.54,2-.86,4.09-3.18,4.4-2.49.34-4.71-2.8-5.3-4.41l-15.37-30.87C133.7,199,209.87,278.34,159.75,289.39c0,0-10.54.35-10.17-2.06C160.06,219,107.93,231,149,147.15c1.53-3.29,7.26-4.73,11-4.53,2.87.15,8.34,3.09,9.39,5.37.7,1.51,12.55,28.82,12.55,28.82l5.15-28.63c2.5-15.15,21.8-16.35,24.46-16.71C214.26,131.48,216.59,132.67,216.91,135.07Z" fill="#019972"/><path d="M252.6,304c17.16-7.52,17.16-7.52,34.32,0Z" fill="#019972"/><path d="M306.56,304c17.16-7.52,17.16-7.52,34.32,0Z" fill="#019972"/></svg>