<?xml version="1.0" encoding="UTF-8" standalone="no"?>
<svg
   id="Слой_2"
   data-name="Слой 2"
   viewBox="0 0 16 16"
   version="1.1"
   sodipodi:docname="blocks_area.svg"
   inkscape:version="1.3 (0e150ed, 2023-07-21)"
   xmlns:inkscape="http://www.inkscape.org/namespaces/inkscape"
   xmlns:sodipodi="http://sodipodi.sourceforge.net/DTD/sodipodi-0.dtd"
   xmlns="http://www.w3.org/2000/svg"
   xmlns:svg="http://www.w3.org/2000/svg">
  <defs
     id="defs2" />
  <sodipodi:namedview
     id="namedview2"
     pagecolor="#505050"
     bordercolor="#ffffff"
     borderopacity="1"
     inkscape:showpageshadow="0"
     inkscape:pageopacity="0"
     inkscape:pagecheckerboard="1"
     inkscape:deskcolor="#d1d1d1"
     inkscape:zoom="25.4375"
     inkscape:cx="6.5061425"
     inkscape:cy="10.181818"
     inkscape:window-width="1880"
     inkscape:window-height="1011"
     inkscape:window-x="0"
     inkscape:window-y="38"
     inkscape:window-maximized="1"
     inkscape:current-layer="Слой_2" />
  <title
     id="title1">Кириллино</title>
  <polygon
     points="4.5,10.5 3,10.5 3,14 7,14 7,12.5 4.5,12.5 "
     fill="#fc7f7f"
     id="polygon1"
     transform="matrix(1.3336205,0,0,1.3336205,-2.66768,-2.6706869)"
     style="stroke-width:0.749839" />
  <path
     d="M 0.86641433,5.3310361 H 1.3331815 V 8.6650874 H 3.3336123 V 5.9978464 H 6.6676635 V 4.2641397 h -2.21381 c -0.4134224,0 -0.586793,-0.4000861 -0.2533879,-0.586793 L 7.7478961,1.6769159 a 0.5334482,0.5334482 0 0 1 0.4934396,0 l 3.5474303,2.0004308 c 0.333405,0.1867069 0.160035,0.586793 -0.253388,0.586793 H 9.3349045 v 1.7337067 h 3.3340515 v 2.667241 h 2.000431 V 5.3310361 h 0.466767 c 0.826844,0 1.173586,-0.8135085 0.506775,-1.2002584 L 8.5080598,0.12991615 a 1.1335774,1.1335774 0 0 0 -1.0135516,0 L 0.35963854,4.1307777 C -0.30717171,4.5175276 -4.39e-4,5.3310361 0.86641433,5.3310361 Z"
     fill="#fc7f7f"
     id="path1"
     style="stroke-width:1" />
  <polygon
     points="9,12.5 9,14 13,14 13,10.5 11.5,10.5 11.5,12.5 "
     fill="#fc7f7f"
     id="polygon2"
     transform="matrix(1.3336205,0,0,1.3336205,-2.66768,-2.6706869)"
     style="stroke-width:0.749839" />
</svg>
