<svg id="Слой_2" data-name="Слой 2" xmlns="http://www.w3.org/2000/svg" viewBox="0 0 16 16"><title>Квадратное лого</title><circle cx="10.27" cy="11.49" r="0.3" fill="#3e3c3f"/><circle cx="12.4" cy="11.49" r="0.3" fill="#3e3c3f"/><path d="M9.47,12.37v.16a2.77,2.77,0,0,0,4.06,0v-.16Z" fill="#fff"/><path d="M9.47,12.27v.46c0,1.38,4.06,1.38,4.06,0v-.46l-.67.32,0,.35a.09.09,0,0,1-.07.06l-.81.06a.08.08,0,0,1-.08-.06l-.05-.32h-.66l-.05.32a.08.08,0,0,1-.08.06L10.23,13a.09.09,0,0,1-.07-.06l0-.35Z" fill="#fc7f7f"/><path d="M13.53,10.08a4.51,4.51,0,0,0-.54.35,2.36,2.36,0,0,0-.44-.32,4.38,4.38,0,0,0,0-.51c-.2-.09-.38-.48-.59-.52-.09.14-.19.6-.26.75a1.93,1.93,0,0,0-.48,0c-.07-.15-.17-.61-.26-.75-.21,0-.39.43-.59.52a4.38,4.38,0,0,0,0,.51,2.36,2.36,0,0,0-.44.32,4.51,4.51,0,0,0-.54-.35c-.16.16-.17.46-.29.65.09.14.19.28.29.41v1l.76.34s.06,0,.07.07l0,.33.66.05,0-.3s0-.06.08-.08h.8s.07,0,.08.08l0,.3.66-.05,0-.33s0-.07.07-.07l.76-.34v-1c.1-.13.2-.27.29-.41C13.7,10.54,13.69,10.24,13.53,10.08Zm-3.1,2a.45.45,0,0,1-.44-.45.45.45,0,0,1,.44-.45.46.46,0,0,1,.46.45A.46.46,0,0,1,10.43,12.08Zm2.14,0a.46.46,0,0,1-.46-.45.46.46,0,0,1,.46-.45.45.45,0,0,1,.44.45A.45.45,0,0,1,12.57,12.08Z" fill="#fc7f7f"/><path d="M11.36,12a.14.14,0,0,0,.28,0v-.43a.14.14,0,0,0-.28,0Z" fill="#fff"/><path d="M1,4v9H8.75V8.75H10V4Zm7,8.25H1.75V4.75h7.5V8L8,8.75Z" fill="#fc7f7f"/><path d="M8,8v7h7V8Zm6.25,6.25H8.75V8.75h5.5Z" fill="#fc7f7f"/><path d="M1,4.75H10c.52,0,.74-.58.32-.84L5.81,1.09a.58.58,0,0,0-.62,0L.72,3.91C.3,4.17.52,4.75,1,4.75Z" fill="#fc7f7f"/><path d="M7.93,8.75h7.14c.42,0,.59-.46.25-.68L11.75,5.8a.45.45,0,0,0-.5,0L7.68,8.07C7.34,8.29,7.51,8.75,7.93,8.75Z" fill="#fc7f7f"/><path d="M4.25,8.75a.89.89,0,0,0,0,.36,4.81,4.81,0,0,1,.79,2.27c0,.1-.07.17-.17.18s-.82-2-1.25-1.91-.81,1.13-.79,1.73a.19.19,0,0,1-.19.18.19.19,0,0,1-.19-.18c0-.17-.55-4.39.2-5.76.18-.19.56-.14,1.13-.1,0,0,1,0,1.06.62,0,0-.19,1.1-.25,1.32ZM4.16,6.94c0-.47-.57-.77-.8-.45-.24.9-.55,2.31.16,2.15A11.74,11.74,0,0,0,4.16,6.94Z" fill="#fc7f7f"/><path d="M8.35,5.44,8.66,7c0,.1-.2.23-.3.24A.86.86,0,0,1,7.84,7l-.26-.8L7.13,7.7c0,.08,0,.16-.12.17s-.19-.11-.21-.17L6.19,6.48c-1.13,1.48,1.88,4.61-.1,5,0,0-.41,0-.4-.08.41-2.7-1.64-2.23,0-5.54.06-.13.29-.18.43-.17A.56.56,0,0,1,6.47,6L7,7.08,7.17,6c.1-.59.86-.64,1-.66S8.34,5.34,8.35,5.44Z" fill="#fc7f7f"/><path d="M9.76,12.1c.68-.29.68-.29,1.35,0Z" fill="#fc7f7f"/><path d="M11.89,12.1c.67-.29.67-.29,1.35,0Z" fill="#fc7f7f"/></svg>