<?xml version="1.0" encoding="UTF-8" standalone="no"?>
<svg
   id="style"
   version="1.1"
   width="16"
   height="16"
   xmlns="http://www.w3.org/2000/svg"
   xmlns:svg="http://www.w3.org/2000/svg">
  <path
     d="M 0.53565464,4.7921303 H 10.141081 A 0.5229621,0.5229621 0 0 0 10.482607,3.8315877 L 5.7119122,0.62977886 a 0.61901637,0.61901637 0 0 0 -0.6617072,0 L 0.23681915,3.8315877 a 0.5229621,0.5229621 0 0 0 0.29883549,0.9605426 z"
     fill="#e0e0e0"
     id="path1"
     style="stroke-width:1" />
  <path
     d="M 15.349357,11.611983 15.12523,11.483911 a 0.90717916,0.90717916 0 0 1 0,-1.5688866 L 15.349357,9.786952 A 0.89650646,0.89650646 0 0 0 15.68021,8.5489193 L 15.306666,7.8978848 A 0.91785186,0.91785186 0 0 0 14.068633,7.5670313 L 13.844507,7.6951036 A 0.90717916,0.90717916 0 0 1 12.489074,6.9266695 V 6.6598521 A 0.90717916,0.90717916 0 0 0 11.581895,5.7526729 H 10.834806 A 0.90717916,0.90717916 0 0 0 9.9276271,6.6598521 V 6.9266695 A 0.90717916,0.90717916 0 0 1 8.5721947,7.7057763 L 8.3480681,7.5670313 A 0.91785186,0.91785186 0 0 0 7.1100354,7.8978848 L 6.736491,8.5489193 A 0.89650646,0.89650646 0 0 0 7.0673446,9.786952 l 0.2241266,0.1280724 a 0.90717916,0.90717916 0 0 1 0,1.5688866 L 7.0673446,11.611983 A 0.89650646,0.89650646 0 0 0 6.736491,12.850016 l 0.3735444,0.651034 a 0.91785186,0.91785186 0 0 0 1.2380327,0.330854 l 0.2241266,-0.128073 a 0.90717916,0.90717916 0 0 1 1.3554324,0.779107 v 0.256145 a 0.90717916,0.90717916 0 0 0 0.9071789,0.907179 h 0.747089 a 0.90717916,0.90717916 0 0 0 0.907179,-0.907179 v -0.256145 a 0.90717916,0.90717916 0 0 1 1.355433,-0.779107 l 0.224126,0.128073 a 0.91785186,0.91785186 0 0 0 1.238033,-0.330854 l 0.373544,-0.651034 a 0.89650646,0.89650646 0 0 0 -0.330853,-1.238033 z m -4.141006,1.238033 a 2.1345392,2.1345392 0 1 1 2.134539,-2.134539 2.1345392,2.1345392 0 0 1 -2.134539,2.134539 z"
     fill="#e0e0e0"
     id="path2"
     style="stroke-width:1" />
  <path
     d="M 5.7759484,11.71871 6.0641112,11.547947 A 1.1526512,1.1526512 0 0 0 6.6404368,10.662113 H 2.6701938 V 5.3257651 h 5.336348 v 1.3661051 a 1.195342,1.195342 0 0 0 1.440814,-0.7257433 v 0 L 9.6074462,3.7248607 H 1.0692894 V 12.263017 H 5.3383678 A 1.0672696,1.0672696 0 0 1 5.7759484,11.71871 Z"
     fill="#e0e0e0"
     id="path3"
     style="stroke-width:1" />
</svg>
