<?xml version="1.0" encoding="UTF-8" standalone="no"?>
<svg
   id="default_texture"
   width="1024"
   height="1024"
   version="1.1"
   xml:space="preserve"
   xmlns="http://www.w3.org/2000/svg"
   xmlns:svg="http://www.w3.org/2000/svg"><g
     id="layer3"><rect
       style="fill:#000f14;fill-opacity:1;stroke:none;stroke-width:5.00001"
       id="rect5"
       width="1024"
       height="1024"
       x="9.874866e-15"
       y="0" /></g><g
     id="layer4"><rect
       style="fill:#f400a1;fill-opacity:1;stroke:none;stroke-width:5.00001"
       id="rect1"
       width="120.00001"
       height="120.00001"
       x="4"
       y="4"
       rx="9.9614429"
       ry="8.186244" /><rect
       style="fill:#f400a1;fill-opacity:1;stroke:none;stroke-width:5.00001"
       id="rect13"
       width="120.00001"
       height="120.00001"
       x="260"
       y="4"
       rx="9.9614429"
       ry="8.186244" /><rect
       style="fill:#f400a1;fill-opacity:1;stroke:none;stroke-width:5.00001"
       id="rect15"
       width="120.00001"
       height="120.00001"
       x="516"
       y="4"
       rx="9.9614429"
       ry="8.186244" /><rect
       style="fill:#f400a1;fill-opacity:1;stroke:none;stroke-width:5.00001"
       id="rect17"
       width="120.00001"
       height="120.00001"
       x="772.00006"
       y="4"
       rx="9.9614429"
       ry="8.186244" /><rect
       style="fill:#f400a1;fill-opacity:1;stroke:none;stroke-width:5.00001"
       id="rect20"
       width="120.00001"
       height="120.00001"
       x="132"
       y="132"
       rx="9.9614429"
       ry="8.186244" /><rect
       style="fill:#f400a1;fill-opacity:1;stroke:none;stroke-width:5.00001"
       id="rect22"
       width="120.00001"
       height="120.00001"
       x="388.00003"
       y="132"
       rx="9.9614429"
       ry="8.186244" /><rect
       style="fill:#f400a1;fill-opacity:1;stroke:none;stroke-width:5.00001"
       id="rect24"
       width="120.00001"
       height="120.00001"
       x="644"
       y="132"
       rx="9.9614429"
       ry="8.186244" /><rect
       style="fill:#f400a1;fill-opacity:1;stroke:none;stroke-width:5.00001"
       id="rect26"
       width="120.00001"
       height="120.00001"
       x="900.00006"
       y="132"
       rx="9.9614429"
       ry="8.186244" /><rect
       style="fill:#f400a1;fill-opacity:1;stroke:none;stroke-width:5.00001"
       id="rect27"
       width="120.00001"
       height="120.00001"
       x="4"
       y="260"
       rx="9.9614429"
       ry="8.186244" /><rect
       style="fill:#f400a1;fill-opacity:1;stroke:none;stroke-width:5.00001"
       id="rect28"
       width="120.00001"
       height="120.00001"
       x="260"
       y="260"
       rx="9.9614429"
       ry="8.186244" /><rect
       style="fill:#f400a1;fill-opacity:1;stroke:none;stroke-width:5.00001"
       id="rect29"
       width="120.00001"
       height="120.00001"
       x="516"
       y="260"
       rx="9.9614429"
       ry="8.186244" /><rect
       style="fill:#f400a1;fill-opacity:1;stroke:none;stroke-width:5.00001"
       id="rect30"
       width="120.00001"
       height="120.00001"
       x="772.00006"
       y="260"
       rx="9.9614429"
       ry="8.186244" /><rect
       style="fill:#f400a1;fill-opacity:1;stroke:none;stroke-width:5.00001"
       id="rect31"
       width="120.00001"
       height="120.00001"
       x="132"
       y="388.00003"
       rx="9.9614429"
       ry="8.186244" /><rect
       style="fill:#f400a1;fill-opacity:1;stroke:none;stroke-width:5.00001"
       id="rect33"
       width="120.00001"
       height="120.00001"
       x="644"
       y="388.00003"
       rx="9.9614429"
       ry="8.186244" /><rect
       style="fill:#f400a1;fill-opacity:1;stroke:none;stroke-width:5.00001"
       id="rect34"
       width="120.00001"
       height="120.00001"
       x="900.00006"
       y="388.00003"
       rx="9.9614429"
       ry="8.186244" /><rect
       style="fill:#f400a1;fill-opacity:1;stroke:none;stroke-width:5.00001"
       id="rect35"
       width="120.00001"
       height="120.00001"
       x="4"
       y="516"
       rx="9.9614429"
       ry="8.186244" /><rect
       style="fill:#f400a1;fill-opacity:1;stroke:none;stroke-width:5.00001"
       id="rect36"
       width="120.00001"
       height="120.00001"
       x="260"
       y="516"
       rx="9.9614429"
       ry="8.186244" /><rect
       style="fill:#f400a1;fill-opacity:1;stroke:none;stroke-width:5.00001"
       id="rect38"
       width="120.00001"
       height="120.00001"
       x="772.00006"
       y="516"
       rx="9.9614429"
       ry="8.186244" /><rect
       style="fill:#f400a1;fill-opacity:1;stroke:none;stroke-width:5.00001"
       id="rect39"
       width="120.00001"
       height="120.00001"
       x="132"
       y="644"
       rx="9.9614429"
       ry="8.186244" /><rect
       style="fill:#f400a1;fill-opacity:1;stroke:none;stroke-width:5.00001"
       id="rect40"
       width="120.00001"
       height="120.00001"
       x="388.00003"
       y="644"
       rx="9.9614429"
       ry="8.186244" /><rect
       style="fill:#f400a1;fill-opacity:1;stroke:none;stroke-width:5.00001"
       id="rect41"
       width="120.00001"
       height="120.00001"
       x="644"
       y="644"
       rx="9.9614429"
       ry="8.186244" /><rect
       style="fill:#f400a1;fill-opacity:1;stroke:none;stroke-width:5.00001"
       id="rect42"
       width="120.00001"
       height="120.00001"
       x="900.00006"
       y="644"
       rx="9.9614429"
       ry="8.186244" /><rect
       style="fill:#f400a1;fill-opacity:1;stroke:none;stroke-width:5.00001"
       id="rect43"
       width="120.00001"
       height="120.00001"
       x="4"
       y="772.00006"
       rx="9.9614429"
       ry="8.186244" /><rect
       style="fill:#f400a1;fill-opacity:1;stroke:none;stroke-width:5.00001"
       id="rect44"
       width="120.00001"
       height="120.00001"
       x="260"
       y="772.00006"
       rx="9.9614429"
       ry="8.186244" /><rect
       style="fill:#f400a1;fill-opacity:1;stroke:none;stroke-width:5.00001"
       id="rect45"
       width="120.00001"
       height="120.00001"
       x="516"
       y="772.00006"
       rx="9.9614429"
       ry="8.186244" /><rect
       style="fill:#f400a1;fill-opacity:1;stroke:none;stroke-width:5.00001"
       id="rect46"
       width="120.00001"
       height="120.00001"
       x="772.00006"
       y="772.00006"
       rx="9.9614429"
       ry="8.186244" /><rect
       style="fill:#f400a1;fill-opacity:1;stroke:none;stroke-width:5.00001"
       id="rect47"
       width="120.00001"
       height="120.00001"
       x="132"
       y="900.00006"
       rx="9.9614429"
       ry="8.186244" /><rect
       style="fill:#f400a1;fill-opacity:1;stroke:none;stroke-width:5.00001"
       id="rect48"
       width="120.00001"
       height="120.00001"
       x="388.00003"
       y="900.00006"
       rx="9.9614429"
       ry="8.186244" /><rect
       style="fill:#f400a1;fill-opacity:1;stroke:none;stroke-width:5.00001"
       id="rect49"
       width="120.00001"
       height="120.00001"
       x="644"
       y="900.00006"
       rx="9.9614429"
       ry="8.186244" /><rect
       style="fill:#f400a1;fill-opacity:1;stroke:none;stroke-width:5.00001"
       id="rect50"
       width="120.00001"
       height="120.00001"
       x="900.00006"
       y="900.00006"
       rx="9.9614429"
       ry="8.186244" /></g><g
     id="layer5"><rect
       style="fill:#eaeaea;fill-opacity:1;stroke:none;stroke-width:5.00001"
       id="rect32"
       width="247.99998"
       height="247.99998"
       x="388.00003"
       y="388.00003"
       rx="20.586981"
       ry="16.918238" /><g
       id="g50"
       transform="matrix(0.59452402,0,0,0.59452282,388.29447,393.09549)"
       style="stroke-width:1.68202"><path
         d="m 255.93,273.45 -4.5,20.46 c 27.89,34.91 31.88,-11.3 43.3,-11.18 13.09,0.13 11.23,28.31 18.75,27.13 15.6,-2.45 23.88,-9 31.22,-17.79 l 0.21,-10 z"
         fill="#ffffff"
         id="path1"
         style="stroke-width:1.68202" /><path
         d="m 245.19,308.13 v 11.68 c 0,35 103,35 103.11,0 v -11.68 l -17,8.26 -0.63,8.74 a 2.11,2.11 0 0 1 -1.77,1.65 l -20.52,1.39 a 2,2 0 0 1 -2,-1.39 l -1.27,-8.23 h -16.73 l -1.26,8.23 a 2,2 0 0 1 -2,1.39 l -20.52,-1.39 a 2.11,2.11 0 0 1 -1.77,-1.65 l -0.64,-8.74 z"
         fill="#019972"
         id="path2"
         style="stroke-width:1.68202" /><circle
         cx="265.62"
         cy="288.34"
         r="7.5999999"
         fill="#403f41"
         id="circle2"
         style="stroke-width:1.68202" /><circle
         cx="319.64999"
         cy="288.34"
         r="7.5999999"
         fill="#403f41"
         id="circle3"
         style="stroke-width:1.68202" /><path
         d="m 348.3,252.62 c -3.64,1.69 -10.52,6.65 -13.81,8.93 a 58.79,58.79 0 0 0 -11.15,-8.11 110.2,110.2 0 0 0 1,-12.92 c -5,-2.36 -9.54,-12.05 -14.94,-13.24 -2.2,3.64 -4.77,15.31 -6.46,19.19 a 43.73,43.73 0 0 0 -12.41,0 c -1.69,-3.88 -4.27,-15.55 -6.46,-19.19 -5.41,1.19 -10,10.88 -14.95,13.24 a 110.2,110.2 0 0 0 1,12.92 58.41,58.41 0 0 0 -11.12,8.11 c -3.3,-2.28 -10.18,-7.24 -13.81,-8.93 -4.05,4.13 -4.14,11.67 -7.09,16.65 a 121.35,121.35 0 0 0 7.09,10.26 V 304 l 19.25,8.51 a 2,2 0 0 1 1.9,1.77 l 0.51,8.49 16.72,1.23 1,-7.72 a 2.45,2.45 0 0 1 1.9,-1.9 H 307 a 2.43,2.43 0 0 1 1.9,1.9 l 1,7.72 16.72,-1.26 0.5,-8.49 a 2,2 0 0 1 1.9,-1.77 L 348.3,304 v -24.47 a 123.73,123.73 0 0 0 7.09,-10.26 c -2.96,-4.98 -3.04,-12.52 -7.09,-16.65 z m -78.54,50.85 a 11.4,11.4 0 1 1 11.4,-11.4 11.4,11.4 0 0 1 -11.4,11.4 z m 30.66,-2 c 0,4.3 -7.35,4.3 -7.35,0 v -10.9 c 0,-4.3 7.35,-4.3 7.35,0 z m 23.3,2 a 11.4,11.4 0 1 1 11.4,-11.4 11.4,11.4 0 0 1 -11.4,11.4 z"
         fill="#019972"
         id="path3"
         style="stroke-width:1.68202" /><path
         d="m 30.74,98.67 v 228 H 227.08 V 219 h 31.66 V 98.67 Z m 177.34,209 H 49.74 v -190 h 190 V 200 l -31.66,19 z"
         fill="#2181a9"
         id="path4"
         style="stroke-width:1.68202" /><path
         d="M 208.08,200 V 377.33 H 385.41 V 200 Z M 366.41,358.33 H 227.08 V 219 h 139.33 z"
         fill="#019972"
         id="path5"
         style="stroke-width:1.68202" /><path
         d="m 31.65,117.67 h 226.18 c 13.13,0 18.59,-14.59 8,-21.3 L 152.71,24.92 a 15.24,15.24 0 0 0 -15.94,0 L 23.68,96.37 c -10.61,6.71 -5.15,21.3 7.97,21.3 z"
         fill="#2181a9"
         id="path6"
         style="stroke-width:1.68202" /><path
         d="m 206.27,219 h 180.94 c 10.5,0 14.87,-11.76 6.38,-17.17 l -90.47,-57.59 a 12.1,12.1 0 0 0 -12.75,0 l -90.48,57.59 c -8.49,5.41 -4.12,17.17 6.38,17.17 z"
         fill="#019972"
         id="path7"
         style="stroke-width:1.68202" /><path
         d="m 113,219 c -0.31,1.64 0.24,7.67 1,9.13 7.48,13.48 19.1,31.43 20.13,57.37 0.43,2.59 -1.73,4.32 -4.32,4.74 -2.8,0 -20.9,-50 -31.66,-48.47 -11,1.73 -20.47,28.65 -20,43.73 0,2.59 -2.16,4.32 -4.74,4.74 -2.79,0 -4.31,-2.15 -5,-4.74 0,-4.31 -13.83,-111.16 5,-145.79 4.52,-4.73 14.3,-3.63 28.61,-2.6 0,0 25.79,0.34 26.87,15.86 0,0 -4.66,27.86 -6.38,33.25 z m -2.29,-45.9 c 0.43,-11.85 -14.25,-19.53 -20.26,-11.24 -6.06,22.65 -13.78,58.42 4.1,54.32 2.15,-0.64 11.2,-27.78 16.16,-43.08 z"
         fill="#2181a9"
         id="path8"
         style="stroke-width:1.68202" /><path
         d="m 216.91,135.07 7.91,40.21 c 0.32,2.39 -5.06,5.64 -7.73,6 -3,0.41 -12.86,-5.27 -13.14,-7.3 l -6.62,-20.26 -11.25,38.68 c -0.54,2 -0.86,4.09 -3.18,4.4 -2.49,0.34 -4.71,-2.8 -5.3,-4.41 l -15.37,-30.87 c -28.53,37.48 47.64,116.82 -2.48,127.87 0,0 -10.54,0.35 -10.17,-2.06 C 160.06,219 107.93,231 149,147.15 c 1.53,-3.29 7.26,-4.73 11,-4.53 2.87,0.15 8.34,3.09 9.39,5.37 0.7,1.51 12.55,28.82 12.55,28.82 l 5.15,-28.63 c 2.5,-15.15 21.8,-16.35 24.46,-16.71 2.71,0.01 5.04,1.2 5.36,3.6 z"
         fill="#019972"
         id="path9"
         style="stroke-width:1.68202" /><path
         d="m 252.6,304 c 17.16,-7.52 17.16,-7.52 34.32,0 z"
         fill="#019972"
         id="path10"
         style="stroke-width:1.68202" /><path
         d="m 306.56,304 c 17.16,-7.52 17.16,-7.52 34.32,0 z"
         fill="#019972"
         id="path11"
         style="stroke-width:1.68202" /></g></g><g
     id="layer2"><rect
       style="fill:#ca364b;fill-opacity:1;stroke:none;stroke-width:5.00001"
       id="rect3"
       width="1024"
       height="15.000001"
       x="-3.5527137e-15"
       y="1009" /><rect
       style="fill:#86c62e;fill-opacity:1;stroke:none;stroke-width:5.00001"
       id="rect4"
       width="15.000001"
       height="1024"
       x="2.3302446e-14"
       y="0" /><rect
       style="fill:#3179c4;fill-opacity:1;stroke:none;stroke-width:5.00001"
       id="rect2"
       width="15.000001"
       height="15.000001"
       x="9.874866e-15"
       y="1009" /></g></svg>
